<svg width="70" height="70" viewBox="0 0 70 70" fill="none" xmlns="http://www.w3.org/2000/svg">
<circle cx="35" cy="35" r="35" fill="#D9D9D9"/>
<path d="M31.6529 21.3802L22.9752 7L24.5868 22.9917L10.7025 19.1488L18.3884 31.5455H5L18.3884 36.7521L12.8099 40.4711L6.23967 44.1901L20.124 43.1983L10.7025 53.1157L24.5868 46.7934V59.562L31.6529 47.9091L32.6446 61.1735L38.4711 47.9091L40.8264 62.1653L44.7934 46.7934L53.9669 55.2231L50.3719 42.3306L60.9091 49.1488L53.9669 37.3719L65 28.0744L52.4793 31.5455L61.6529 19.1488L46.7769 28.0744L49.5041 9.72727L40.2066 22.9917L38.4711 7.61983L31.6529 21.3802Z" fill="#FF731D"/>
<path d="M31.6529 21.3802L22.9752 7L24.5868 22.9917L10.7025 19.1488L18.3884 31.5455H5L18.3884 36.7521L12.8099 40.4711L6.23967 44.1901L20.124 43.1983L10.7025 53.1157L24.5868 46.7934V59.562L31.6529 47.9091L32.6446 61.1735L38.4711 47.9091L40.8264 62.1653L44.7934 46.7934L53.9669 55.2231L50.3719 42.3306L60.9091 49.1488L53.9669 37.3719L65 28.0744L52.4793 31.5455L61.6529 19.1488L46.7769 28.0744L49.5041 9.72727L40.2066 22.9917L38.4711 7.61983L31.6529 21.3802Z" fill="#FF731D"/>
<path d="M50.1241 35.7604L40.3307 26.4629L29.1736 24.9753L21.8596 31.4216L26.3224 42.8265L42.0662 44.5621L50.1241 35.7604Z" fill="black"/>
<circle cx="30.5372" cy="35.5123" r="1.61157" fill="white"/>
<circle cx="36.7355" cy="35.5123" r="1.61157" fill="white"/>
<circle cx="36.7356" cy="35.5124" r="0.867769" fill="black"/>
<circle cx="30.5372" cy="35.5124" r="0.867769" fill="black"/>
<ellipse cx="29" cy="35.5" rx="5" ry="3.5" fill="#D9D9D9"/>
<ellipse cx="40" cy="35.5" rx="5" ry="3.5" fill="#D9D9D9"/>
<rect x="33" y="34" width="3" height="2" fill="#D9D9D9"/>
<ellipse cx="29.5" cy="35.5" rx="3.5" ry="2.5" fill="black"/>
<ellipse cx="39.5" cy="35.5" rx="3.5" ry="2.5" fill="black"/>
</svg>
